<?xml version="1.0" encoding="utf-8"?>
<!-- Generator: Adobe Illustrator 28.2.0, SVG Export Plug-In . SVG Version: 6.00 Build 0)  -->
<svg version="1.1" id="Ebene_1" xmlns="http://www.w3.org/2000/svg" xmlns:xlink="http://www.w3.org/1999/xlink" x="0px" y="0px"
	 viewBox="0 0 941 165" style="enable-background:new 0 0 941 165;" xml:space="preserve">
<style type="text/css">
	.st0{fill:#00D790;}
	.st1{fill-rule:evenodd;clip-rule:evenodd;fill:#00D790;}
	.st2{opacity:0.447;fill-rule:evenodd;clip-rule:evenodd;fill:url(#SVGID_1_);enable-background:new    ;}
	
		.st3{opacity:0.447;fill-rule:evenodd;clip-rule:evenodd;fill:url(#SVGID_00000008839289887415107720000014894202874825509554_);enable-background:new    ;}
</style>
<g>
	<g>
		<polygon class="st0" points="418,27 397,27 397,54 384,54 384,69 397,69 397,126 418,126 418,69 434,69 434,54 418,54 		"/>
		<path class="st0" d="M344.7,51.9c-21.2,0-39.2,14.8-39.2,38.5c0,22.6,16.6,38,39.2,38c12.9,0,25.9-5,32.8-14.3L365.3,102
			c-4.4,5.2-11.8,8.2-19.3,8.2c-9.9,0-16.9-4.7-19.1-13.2h55.6c0.2-3.3,0.3-5.8,0.3-7.9C382.9,66.7,365.7,51.9,344.7,51.9z M327,83
			c2.2-9.9,9.6-13.8,18-13.8c9.3,0,16.6,5.2,17.2,13.8H327z"/>
		<path class="st0" d="M266,52.1c-8.5,0-18.8,3.3-24,10.7V54h-21v109h21v-45c5.3,7.4,15.5,10.5,24,10.5c19.2,0,36.7-14.6,36.7-38.1
			S285.2,52.1,266,52.1z M261.5,108.8c-9.6,0-19.1-7.5-19.1-18.9c0-11.2,9-19,19.1-19c10.4,0,18.9,8.3,18.9,19
			C280.5,100.8,272,108.8,261.5,108.8z"/>
		<path class="st0" d="M796,69V54h-21v73h21v-25.4c0.4-20.9,7.7-30.6,18.2-30.6c2.5,0,6.2,0.3,10.6,2.7l4.7-19.6
			c-3.3-1.7-7.7-2.4-11.7-2.4C808.7,51.6,796,69,796,69z"/>
		<path class="st0" d="M748,62.8c-5.3-7.4-15.4-10.5-24-10.5c-19.2,0-36.7,14.5-36.7,38s17.4,38,36.7,38c8.3,0,18.8-3.3,24-10.5v9.1
			h21V54h-21V62.8z M728.2,108.9c-10.4,0-19.1-8.3-19.1-19c0-10.8,8.7-18.9,19.1-18.9c9.6,0,19.1,7.5,19.1,18.9
			C747.3,101.1,738.3,108.9,728.2,108.9z"/>
		<polygon class="st0" points="872.6,85.6 901.8,53 874.9,53 856,75.2 856,14 835,14 835,127 856,127 856,95 882.2,127 908.3,127 		
			"/>
		<path class="st0" d="M648,52.1c-8.5,0-18.8,3.3-24,10.7V54h-21v109h21v-45c5.3,7.4,15.5,10.5,24,10.5c19.2,0,36.7-14.6,36.7-38.1
			S667.2,52.1,648,52.1z M643.3,108.8c-9.6,0-19.1-7.5-19.1-18.9c0-11.2,9-19,19.1-19c10.4,0,18.9,8.3,18.9,19
			C662.3,100.8,653.8,108.8,643.3,108.8z"/>
		<path class="st0" d="M537,69V54h-21v73h20v-25.4c0.8-20.9,8.1-30.6,18.6-30.6c2.5,0,6.2,0.3,10.6,2.7l4.7-19.6
			c-3.3-1.7-7.7-2.4-11.7-2.4C549.1,51.6,537,69,537,69z"/>
		<path class="st0" d="M473.4,51.9c-21.2,0-39.2,14.8-39.2,38.5c0,22.6,16.6,38,39.2,38c12.9,0,25.9-5,32.8-14.3L494,102
			c-4.4,5.2-11.8,8.2-19.3,8.2c-9.9,0-16.9-4.7-19.1-13.2h55.6c0.2-3.3,0.3-5.8,0.3-7.9C511.6,66.7,494.4,51.9,473.4,51.9z
			 M455.7,83c2.2-9.9,9.6-13.8,18-13.8c9.3,0,16.6,5.2,17.2,13.8H455.7z"/>
	</g>
	<g>
		<path class="st1" d="M156.3,53H80l3.7-11.1C87.2,31.8,96.6,25,107.4,25H157c8.6,0,15.4,7.6,13.9,16.4
			C169.8,48.2,163.3,53,156.3,53z M114.2,94.4c-1.1,6.9-7.7,11.6-14.7,11.6H61.8l3.9-11.5c3.4-9.9,12.6-16.5,23-16.5h11.6
			C108.9,78,115.7,85.6,114.2,94.4z M53.2,130h44.5c19.7,0,37.9-13.5,41.1-32.8c1.1-7.2,0.2-14.1-2.3-20.2h19.2
			c18.9,0,36.2-12.6,39.8-31c4.7-24.6-14.2-46-38-46H97.1C81.7,0,68.2,9.7,63.3,24.1L27.4,130l-11.2,33.2c-0.4,1.1,1.1,2,1.9,1.1
			L53.2,130z"/>
		
			<linearGradient id="SVGID_1_" gradientUnits="userSpaceOnUse" x1="121.7105" y1="-1733.8539" x2="121.7105" y2="-1753.3281" gradientTransform="matrix(1 0 0 -1 0 -1662.1417)">
			<stop  offset="0" style="stop-color:#008257"/>
			<stop  offset="1" style="stop-color:#00D790"/>
		</linearGradient>
		<path class="st2" d="M88.2,77L88.2,77h0.6C88.6,77,88.4,77,88.2,77z M101.2,78h54h-18.9c1.8,4.3,2.7,9,2.7,14h-23.9
			C115.2,84.3,108.9,78,101.2,78z"/>
		
			<linearGradient id="SVGID_00000057856394696363173500000002924100370862611846_" gradientUnits="userSpaceOnUse" x1="121.7105" y1="-1739.4178" x2="121.7105" y2="-1750.5461" gradientTransform="matrix(1 0 0 -1 0 -1662.1417)">
			<stop  offset="0" style="stop-color:#008257"/>
			<stop  offset="1" style="stop-color:#00D790"/>
		</linearGradient>
		
			<path style="opacity:0.447;fill-rule:evenodd;clip-rule:evenodd;fill:url(#SVGID_00000057856394696363173500000002924100370862611846_);enable-background:new    ;" d="
			M88.2,77L88.2,77h0.6C88.6,77,88.4,77,88.2,77z M101.2,78h54h-18.9c1.8,4.3,2.7,9,2.7,14h-23.9C115.2,84.3,108.9,78,101.2,78z"/>
	</g>
	<path class="st0" d="M912.5,14.4c7.4,0,13.4,6,13.4,13.5s-5.9,13.4-13.4,13.4c-7.4,0-13.4-6-13.4-13.4S905.1,14.4,912.5,14.4z
		 M912.5,39c6.2,0,11-4.9,11-11.1c0-6.1-4.9-11.1-11-11.1s-11,5-11,11.1S906.4,39,912.5,39z M918.3,25.3c0,2.5-1.1,3.8-3.2,4.2
		l3.5,4.6h-3.8l-3.1-4H911v4h-3V21h5.6C916.8,21,918.3,23.1,918.3,25.3z M911,24v4h2.2c1.5,0,2.1-1.1,2.1-2c0-0.8-0.5-2-2-2H911z"/>
</g>
</svg>
